<?xml version="1.0" standalone="no"?>
<!DOCTYPE svg PUBLIC "-//W3C//DTD SVG 20010904//EN"
 "http://www.w3.org/TR/2001/REC-SVG-20010904/DTD/svg10.dtd">
<svg version="1.0" xmlns="http://www.w3.org/2000/svg"
 width="700.000000pt" height="700.000000pt" viewBox="0 0 700.000000 700.000000"
 preserveAspectRatio="xMidYMid meet">
<metadata>
Created by potrace 1.11, written by Peter Selinger 2001-2013
</metadata>
<g transform="translate(0.000000,700.000000) scale(0.100000,-0.100000)"
fill="#000000" stroke="none">
<path d="M800 6339 c-158 -27 -297 -150 -347 -307 -17 -54 -18 -171 -18 -2642
0 -2471 1 -2588 18 -2642 43 -137 151 -245 295 -296 43 -15 191 -17 1712 -20
1125 -2 1691 1 1745 8 206 27 358 176 386 377 5 38 8 165 7 283 l-3 215 -1055
5 c-993 5 -1058 6 -1105 23 -124 46 -180 81 -265 167 -93 93 -134 159 -172
280 l-23 75 0 865 c0 967 -3 918 72 1070 28 55 59 97 118 155 92 93 182 145
301 175 74 19 115 20 1106 20 l1028 0 0 225 0 225 -577 0 c-451 0 -589 3 -628
14 -141 37 -248 133 -303 270 -15 36 -18 119 -22 751 l-5 710 -1105 1 c-622 1
-1129 -2 -1160 -7z"/>
<path d="M3280 5662 l0 -680 28 -53 c20 -39 41 -62 77 -84 l48 -30 580 -3
c376 -2 578 1 575 7 -4 12 -1274 1495 -1294 1512 -12 10 -14 -89 -14 -669z"/>
<path d="M2511 3924 c-170 -45 -297 -193 -322 -373 -6 -42 -9 -389 -7 -868 3
-752 5 -801 22 -847 57 -149 153 -243 295 -286 62 -20 103 -20 1986 -20 1856
0 1925 1 1984 19 82 26 138 60 194 120 63 68 107 162 118 254 11 101 11 1535
-1 1627 -23 181 -152 329 -325 374 -53 14 -274 16 -1975 15 -1640 0 -1923 -2
-1969 -15z m471 -674 c76 -135 151 -265 165 -288 l25 -44 166 291 166 291 103
0 c57 0 103 -2 103 -4 0 -2 -97 -173 -215 -380 -118 -207 -215 -378 -215 -381
0 -3 97 -174 215 -381 118 -207 215 -378 215 -380 0 -2 -46 -4 -103 -4 l-103
0 -163 285 c-89 157 -165 285 -169 285 -4 0 -76 -121 -160 -269 -85 -148 -159
-277 -165 -285 -10 -14 -29 -16 -113 -14 l-101 3 215 375 c118 206 215 380
215 385 0 8 -345 617 -415 733 l-20 33 107 -3 107 -3 140 -245z m1334 -82
l167 -333 166 333 166 332 107 0 108 0 0 -765 0 -765 -105 0 -105 0 0 545 c0
300 -3 545 -8 545 -4 0 -56 -97 -115 -215 l-107 -215 -108 0 -107 0 -110 218
-110 217 -3 -547 -2 -548 -105 0 -105 0 0 765 0 765 105 0 105 0 166 -332z
m1146 -325 l3 -658 438 -3 437 -2 0 -105 0 -105 -545 0 -545 0 0 765 0 765
105 0 105 0 2 -657z"/>
</g>
</svg>
