<svg width="512" height="297" xmlns="http://www.w3.org/2000/svg">

 <g>
  <title>background</title>
  <rect fill="none" id="canvas_background" height="299" width="514" y="-1" x="-1"/>
 </g>
 <g>
  <title>Layer 1</title>
  <rect x="0" fill="#cb001c" id="svg_2" y="275.2591" width="512" height="23" class="st0"/>
  <rect x="0" fill="#ffffff" id="svg_3" y="252.2591" width="512" height="23" class="st1"/>
  <rect x="0" fill="#cb001c" id="svg_4" y="229.2591" width="512" height="23" class="st0"/>
  <rect x="0" fill="#ffffff" id="svg_5" y="206.2591" width="512" height="23" class="st1"/>
  <rect x="0" fill="#cb001c" id="svg_6" y="183.3591" width="512" height="23" class="st0"/>
  <rect x="0" fill="#ffffff" id="svg_7" y="160.3591" width="512" height="23" class="st1"/>
  <rect x="0" fill="#cb001c" id="svg_8" y="137.3591" width="512" height="23" class="st0"/>
  <rect x="0" fill="#ffffff" id="svg_9" y="114.3591" width="512" height="23" class="st1"/>
  <rect x="0" fill="#cb001c" id="svg_10" y="91.4591" width="512" height="23" class="st0"/>
  <rect x="0" fill="#ffffff" id="svg_11" y="68.4591" width="512" height="23" class="st1"/>
  <rect x="0" fill="#cb001c" id="svg_12" y="45.4591" width="512" height="23" class="st0"/>
  <rect x="0" fill="#ffffff" id="svg_13" y="22.4591" width="512" height="23" class="st1"/>
  <rect x="0" fill="#cb001c" id="svg_14" y="-0.4409" width="512" height="23" class="st0"/>
  <rect x="0" fill="#2a3560" id="svg_15" y="-0.4409" width="233.8" height="160.8" class="st2"/>
  <polygon fill="#ffffff" id="svg_16" points="21.100001513957977,17.25910186767578 23.100001513957977,23.359100341796875 29.400000751018524,23.359100341796875 24.300000369548798,27.059097290039062 26.200001895427704,33.15910339355469 21.100001513957977,29.359100341796875 15.900000751018524,33.15910339355469 17.900000751018524,27.059097290039062 12.699999988079071,23.359100341796875 19.100001513957977,23.359100341796875 " class="st1"/>
  <polygon fill="#ffffff" id="svg_17" points="21.100001513957977,44.05909729003906 23.100001513957977,50.15910339355469 29.400000751018524,50.15910339355469 24.300000369548798,53.9591064453125 26.200001895427704,59.9591064453125 21.100001513957977,56.25909423828125 15.900000751018524,59.9591064453125 17.900000751018524,53.9591064453125 12.699999988079071,50.15910339355469 19.100001513957977,50.15910339355469 " class="st1"/>
  <polygon fill="#ffffff" id="svg_18" points="21.100001513957977,70.9591064453125 23.100001513957977,77.05909729003906 29.400000751018524,77.05909729003906 24.300000369548798,80.75909423828125 26.200001895427704,86.85910034179688 21.100001513957977,83.05909729003906 15.900000751018524,86.85910034179688 17.900000751018524,80.75909423828125 12.699999988079071,77.05909729003906 19.100001513957977,77.05909729003906 " class="st1"/>
  <polygon fill="#ffffff" id="svg_19" points="21.100001513957977,97.75909423828125 23.100001513957977,103.85910034179688 29.400000751018524,103.85910034179688 24.300000369548798,107.65910339355469 26.200001895427704,113.65910339355469 21.100001513957977,109.9591064453125 15.900000751018524,113.65910339355469 17.900000751018524,107.65910339355469 12.699999988079071,103.85910034179688 19.100001513957977,103.85910034179688 " class="st1"/>
  <polygon fill="#ffffff" id="svg_20" points="21.100001513957977,124.65910339355469 23.100001513957977,130.6591033935547 29.400000751018524,130.6591033935547 24.300000369548798,134.4591064453125 26.200001895427704,140.55909729003906 21.100001513957977,136.75909423828125 15.900000751018524,140.55909729003906 17.900000751018524,134.4591064453125 12.699999988079071,130.6591033935547 19.100001513957977,130.6591033935547 " class="st1"/>
  <polygon fill="#ffffff" id="svg_21" points="39.79999655485153,31.359098434448242 41.79999655485153,37.4591064453125 48.09999579191208,37.4591064453125 42.999997317790985,41.25909423828125 44.89999884366989,47.25909423828125 39.79999655485153,43.55909729003906 34.59999579191208,47.25909423828125 36.59999579191208,41.25909423828125 31.400000751018524,37.4591064453125 37.79999655485153,37.4591064453125 " class="st1"/>
  <polygon fill="#ffffff" id="svg_22" points="39.79999655485153,58.25909423828125 41.79999655485153,64.25909423828125 48.09999579191208,64.25909423828125 42.999997317790985,68.05909729003906 44.89999884366989,74.15910339355469 39.79999655485153,70.35910034179688 34.59999579191208,74.15910339355469 36.59999579191208,68.05909729003906 31.400000751018524,64.25909423828125 37.79999655485153,64.25909423828125 " class="st1"/>
  <polygon fill="#ffffff" id="svg_23" points="39.79999655485153,85.05909729003906 41.79999655485153,91.15910339355469 48.09999579191208,91.15910339355469 42.999997317790985,94.9591064453125 44.89999884366989,100.9591064453125 39.79999655485153,97.25909423828125 34.59999579191208,100.9591064453125 36.59999579191208,94.9591064453125 31.400000751018524,91.15910339355469 37.79999655485153,91.15910339355469 " class="st1"/>
  <polygon fill="#ffffff" id="svg_24" points="39.79999655485153,111.9591064453125 41.79999655485153,117.9591064453125 48.09999579191208,117.9591064453125 42.999997317790985,121.75909423828125 44.89999884366989,127.8591079711914 39.79999655485153,124.05909729003906 34.59999579191208,127.8591079711914 36.59999579191208,121.75909423828125 31.400000751018524,117.9591064453125 37.79999655485153,117.9591064453125 " class="st1"/>
  <polygon fill="#ffffff" id="svg_25" points="58.69999808073044,17.25910186767578 60.69999808073044,23.359100341796875 67.09999960660934,23.359100341796875 61.89999884366989,27.059097290039062 63.89999884366989,33.15910339355469 58.69999808073044,29.359100341796875 53.499997317790985,33.15910339355469 55.499997317790985,27.059097290039062 50.29999655485153,23.359100341796875 56.69999808073044,23.359100341796875 " class="st1"/>
  <polygon fill="#ffffff" id="svg_26" points="58.69999808073044,44.05909729003906 60.69999808073044,50.15910339355469 67.09999960660934,50.15910339355469 61.89999884366989,53.9591064453125 63.89999884366989,59.9591064453125 58.69999808073044,56.25909423828125 53.499997317790985,59.9591064453125 55.499997317790985,53.9591064453125 50.29999655485153,50.15910339355469 56.69999808073044,50.15910339355469 " class="st1"/>
  <polygon fill="#ffffff" id="svg_27" points="58.69999808073044,70.9591064453125 60.69999808073044,77.05909729003906 67.09999960660934,77.05909729003906 61.89999884366989,80.75909423828125 63.89999884366989,86.85910034179688 58.69999808073044,83.05909729003906 53.499997317790985,86.85910034179688 55.499997317790985,80.75909423828125 50.29999655485153,77.05909729003906 56.69999808073044,77.05909729003906 " class="st1"/>
  <polygon fill="#ffffff" id="svg_28" points="58.69999808073044,97.75909423828125 60.69999808073044,103.85910034179688 67.09999960660934,103.85910034179688 61.89999884366989,107.65910339355469 63.89999884366989,113.65910339355469 58.69999808073044,109.9591064453125 53.499997317790985,113.65910339355469 55.499997317790985,107.65910339355469 50.29999655485153,103.85910034179688 56.69999808073044,103.85910034179688 " class="st1"/>
  <polygon fill="#ffffff" id="svg_29" points="58.69999808073044,124.65910339355469 60.69999808073044,130.6591033935547 67.09999960660934,130.6591033935547 61.89999884366989,134.4591064453125 63.89999884366989,140.55909729003906 58.69999808073044,136.75909423828125 53.499997317790985,140.55909729003906 55.499997317790985,134.4591064453125 50.29999655485153,130.6591033935547 56.69999808073044,130.6591033935547 " class="st1"/>
  <polygon fill="#ffffff" id="svg_30" points="77.40000265836716,31.359098434448242 79.40000265836716,37.4591064453125 85.80000418424606,37.4591064453125 80.59999960660934,41.25909423828125 82.59999960660934,47.25909423828125 77.40000265836716,43.55909729003906 72.19999808073044,47.25909423828125 74.19999808073044,41.25909423828125 69.00000113248825,37.4591064453125 75.40000265836716,37.4591064453125 " class="st1"/>
  <polygon fill="#ffffff" id="svg_31" points="77.40000265836716,58.25909423828125 79.40000265836716,64.25909423828125 85.80000418424606,64.25909423828125 80.59999960660934,68.05909729003906 82.59999960660934,74.15910339355469 77.40000265836716,70.35910034179688 72.19999808073044,74.15910339355469 74.19999808073044,68.05909729003906 69.00000113248825,64.25909423828125 75.40000265836716,64.25909423828125 " class="st1"/>
  <polygon fill="#ffffff" id="svg_32" points="77.40000265836716,85.05909729003906 79.40000265836716,91.15910339355469 85.80000418424606,91.15910339355469 80.59999960660934,94.9591064453125 82.59999960660934,100.9591064453125 77.40000265836716,97.25909423828125 72.19999808073044,100.9591064453125 74.19999808073044,94.9591064453125 69.00000113248825,91.15910339355469 75.40000265836716,91.15910339355469 " class="st1"/>
  <polygon fill="#ffffff" id="svg_33" points="77.40000265836716,111.9591064453125 79.40000265836716,117.9591064453125 85.80000418424606,117.9591064453125 80.59999960660934,121.75909423828125 82.59999960660934,127.8591079711914 77.40000265836716,124.05909729003906 72.19999808073044,127.8591079711914 74.19999808073044,121.75909423828125 69.00000113248825,117.9591064453125 75.40000265836716,117.9591064453125 " class="st1"/>
  <polygon fill="#ffffff" id="svg_34" points="96.30000418424606,17.25910186767578 98.30000418424606,23.359100341796875 104.69999808073044,23.359100341796875 99.50000113248825,27.059097290039062 101.50000113248825,33.15910339355469 96.30000418424606,29.359100341796875 91.19999808073044,33.15910339355469 93.19999808073044,27.059097290039062 88.00000113248825,23.359100341796875 94.40000265836716,23.359100341796875 " class="st1"/>
  <polygon fill="#ffffff" id="svg_35" points="96.30000418424606,44.05909729003906 98.30000418424606,50.15910339355469 104.69999808073044,50.15910339355469 99.50000113248825,53.9591064453125 101.50000113248825,59.9591064453125 96.30000418424606,56.25909423828125 91.19999808073044,59.9591064453125 93.19999808073044,53.9591064453125 88.00000113248825,50.15910339355469 94.40000265836716,50.15910339355469 " class="st1"/>
  <polygon fill="#ffffff" id="svg_36" points="96.30000418424606,70.9591064453125 98.30000418424606,77.05909729003906 104.69999808073044,77.05909729003906 99.50000113248825,80.75909423828125 101.50000113248825,86.85910034179688 96.30000418424606,83.05909729003906 91.19999808073044,86.85910034179688 93.19999808073044,80.75909423828125 88.00000113248825,77.05909729003906 94.40000265836716,77.05909729003906 " class="st1"/>
  <polygon fill="#ffffff" id="svg_37" points="96.30000418424606,97.75909423828125 98.30000418424606,103.85910034179688 104.69999808073044,103.85910034179688 99.50000113248825,107.65910339355469 101.50000113248825,113.65910339355469 96.30000418424606,109.9591064453125 91.19999808073044,113.65910339355469 93.19999808073044,107.65910339355469 88.00000113248825,103.85910034179688 94.40000265836716,103.85910034179688 " class="st1"/>
  <polygon fill="#ffffff" id="svg_38" points="96.30000418424606,124.65910339355469 98.30000418424606,130.6591033935547 104.69999808073044,130.6591033935547 99.50000113248825,134.4591064453125 101.50000113248825,140.55909729003906 96.30000418424606,136.75909423828125 91.19999808073044,140.55909729003906 93.19999808073044,134.4591064453125 88.00000113248825,130.6591033935547 94.40000265836716,130.6591033935547 " class="st1"/>
  <polygon fill="#ffffff" id="svg_39" points="115.00000113248825,31.359098434448242 117.00000113248825,37.4591064453125 123.40000265836716,37.4591064453125 118.19999808073044,41.25909423828125 120.19999808073044,47.25909423828125 115.00000113248825,43.55909729003906 109.90000265836716,47.25909423828125 111.80000418424606,41.25909423828125 106.69999808073044,37.4591064453125 113.09999960660934,37.4591064453125 " class="st1"/>
  <polygon fill="#ffffff" id="svg_40" points="115.00000113248825,58.25909423828125 117.00000113248825,64.25909423828125 123.40000265836716,64.25909423828125 118.19999808073044,68.05909729003906 120.19999808073044,74.15910339355469 115.00000113248825,70.35910034179688 109.90000265836716,74.15910339355469 111.80000418424606,68.05909729003906 106.69999808073044,64.25909423828125 113.09999960660934,64.25909423828125 " class="st1"/>
  <polygon fill="#ffffff" id="svg_41" points="115.00000113248825,85.05909729003906 117.00000113248825,91.15910339355469 123.40000265836716,91.15910339355469 118.19999808073044,94.9591064453125 120.19999808073044,100.9591064453125 115.00000113248825,97.25909423828125 109.90000265836716,100.9591064453125 111.80000418424606,94.9591064453125 106.69999808073044,91.15910339355469 113.09999960660934,91.15910339355469 " class="st1"/>
  <polygon fill="#ffffff" id="svg_42" points="115.00000113248825,111.9591064453125 117.00000113248825,117.9591064453125 123.40000265836716,117.9591064453125 118.19999808073044,121.75909423828125 120.19999808073044,127.8591079711914 115.00000113248825,124.05909729003906 109.90000265836716,127.8591079711914 111.80000418424606,121.75909423828125 106.69999808073044,117.9591064453125 113.09999960660934,117.9591064453125 " class="st1"/>
  <polygon fill="#ffffff" id="svg_43" points="134.00000876188278,17.25910186767578 136.00000876188278,23.359100341796875 142.3000118136406,23.359100341796875 137.20000571012497,27.059097290039062 139.1000148653984,33.15910339355469 134.00000876188278,29.359100341796875 128.8000118136406,33.15910339355469 130.8000118136406,27.059097290039062 125.59999960660934,23.359100341796875 132.00000876188278,23.359100341796875 " class="st1"/>
  <polygon fill="#ffffff" id="svg_44" points="134.00000876188278,44.05909729003906 136.00000876188278,50.15910339355469 142.3000118136406,50.15910339355469 137.20000571012497,53.9591064453125 139.1000148653984,59.9591064453125 134.00000876188278,56.25909423828125 128.8000118136406,59.9591064453125 130.8000118136406,53.9591064453125 125.59999960660934,50.15910339355469 132.00000876188278,50.15910339355469 " class="st1"/>
  <polygon fill="#ffffff" id="svg_45" points="134.00000876188278,70.9591064453125 136.00000876188278,77.05909729003906 142.3000118136406,77.05909729003906 137.20000571012497,80.75909423828125 139.1000148653984,86.85910034179688 134.00000876188278,83.05909729003906 128.8000118136406,86.85910034179688 130.8000118136406,80.75909423828125 125.59999960660934,77.05909729003906 132.00000876188278,77.05909729003906 " class="st1"/>
  <polygon fill="#ffffff" id="svg_46" points="134.00000876188278,97.75909423828125 136.00000876188278,103.85910034179688 142.3000118136406,103.85910034179688 137.20000571012497,107.65910339355469 139.1000148653984,113.65910339355469 134.00000876188278,109.9591064453125 128.8000118136406,113.65910339355469 130.8000118136406,107.65910339355469 125.59999960660934,103.85910034179688 132.00000876188278,103.85910034179688 " class="st1"/>
  <polygon fill="#ffffff" id="svg_47" points="134.00000876188278,124.65910339355469 136.00000876188278,130.6591033935547 142.3000118136406,130.6591033935547 137.20000571012497,134.4591064453125 139.1000148653984,140.55909729003906 134.00000876188278,136.75909423828125 128.8000118136406,140.55909729003906 130.8000118136406,134.4591064453125 125.59999960660934,130.6591033935547 132.00000876188278,130.6591033935547 " class="st1"/>
  <polygon fill="#ffffff" id="svg_48" points="152.70000571012497,31.359098434448242 154.6000148653984,37.4591064453125 161.00000876188278,37.4591064453125 155.90000265836716,41.25909423828125 157.8000118136406,47.25909423828125 152.70000571012497,43.55909729003906 147.50000876188278,47.25909423828125 149.50000876188278,41.25909423828125 144.3000118136406,37.4591064453125 150.70000571012497,37.4591064453125 " class="st1"/>
  <polygon fill="#ffffff" id="svg_49" points="152.70000571012497,58.25909423828125 154.6000148653984,64.25909423828125 161.00000876188278,64.25909423828125 155.90000265836716,68.05909729003906 157.8000118136406,74.15910339355469 152.70000571012497,70.35910034179688 147.50000876188278,74.15910339355469 149.50000876188278,68.05909729003906 144.3000118136406,64.25909423828125 150.70000571012497,64.25909423828125 " class="st1"/>
  <polygon fill="#ffffff" id="svg_50" points="152.70000571012497,85.05909729003906 154.6000148653984,91.15910339355469 161.00000876188278,91.15910339355469 155.90000265836716,94.9591064453125 157.8000118136406,100.9591064453125 152.70000571012497,97.25909423828125 147.50000876188278,100.9591064453125 149.50000876188278,94.9591064453125 144.3000118136406,91.15910339355469 150.70000571012497,91.15910339355469 " class="st1"/>
  <polygon fill="#ffffff" id="svg_51" points="152.70000571012497,111.9591064453125 154.6000148653984,117.9591064453125 161.00000876188278,117.9591064453125 155.90000265836716,121.75909423828125 157.8000118136406,127.8591079711914 152.70000571012497,124.05909729003906 147.50000876188278,127.8591079711914 149.50000876188278,121.75909423828125 144.3000118136406,117.9591064453125 150.70000571012497,117.9591064453125 " class="st1"/>
  <polygon fill="#ffffff" id="svg_52" points="171.6000148653984,17.25910186767578 173.6000148653984,23.359100341796875 180.00000876188278,23.359100341796875 174.8000118136406,27.059097290039062 176.8000118136406,33.15910339355469 171.6000148653984,29.359100341796875 166.40000265836716,33.15910339355469 168.40000265836716,27.059097290039062 163.20000571012497,23.359100341796875 169.6000148653984,23.359100341796875 " class="st1"/>
  <polygon fill="#ffffff" id="svg_53" points="171.6000148653984,44.05909729003906 173.6000148653984,50.15910339355469 180.00000876188278,50.15910339355469 174.8000118136406,53.9591064453125 176.8000118136406,59.9591064453125 171.6000148653984,56.25909423828125 166.40000265836716,59.9591064453125 168.40000265836716,53.9591064453125 163.20000571012497,50.15910339355469 169.6000148653984,50.15910339355469 " class="st1"/>
  <polygon fill="#ffffff" id="svg_54" points="171.6000148653984,70.9591064453125 173.6000148653984,77.05909729003906 180.00000876188278,77.05909729003906 174.8000118136406,80.75909423828125 176.8000118136406,86.85910034179688 171.6000148653984,83.05909729003906 166.40000265836716,86.85910034179688 168.40000265836716,80.75909423828125 163.20000571012497,77.05909729003906 169.6000148653984,77.05909729003906 " class="st1"/>
  <polygon fill="#ffffff" id="svg_55" points="171.6000148653984,97.75909423828125 173.6000148653984,103.85910034179688 180.00000876188278,103.85910034179688 174.8000118136406,107.65910339355469 176.8000118136406,113.65910339355469 171.6000148653984,109.9591064453125 166.40000265836716,113.65910339355469 168.40000265836716,107.65910339355469 163.20000571012497,103.85910034179688 169.6000148653984,103.85910034179688 " class="st1"/>
  <polygon fill="#ffffff" id="svg_56" points="171.6000148653984,124.65910339355469 173.6000148653984,130.6591033935547 180.00000876188278,130.6591033935547 174.8000118136406,134.4591064453125 176.8000118136406,140.55909729003906 171.6000148653984,136.75909423828125 166.40000265836716,140.55909729003906 168.40000265836716,134.4591064453125 163.20000571012497,130.6591033935547 169.6000148653984,130.6591033935547 " class="st1"/>
  <polygon fill="#ffffff" id="svg_57" points="190.3000118136406,31.359098434448242 192.3000118136406,37.4591064453125 198.70000571012497,37.4591064453125 193.50000876188278,41.25909423828125 195.50000876188278,47.25909423828125 190.3000118136406,43.55909729003906 185.1000148653984,47.25909423828125 187.1000148653984,41.25909423828125 181.90000265836716,37.4591064453125 188.3000118136406,37.4591064453125 " class="st1"/>
  <polygon fill="#ffffff" id="svg_58" points="190.3000118136406,58.25909423828125 192.3000118136406,64.25909423828125 198.70000571012497,64.25909423828125 193.50000876188278,68.05909729003906 195.50000876188278,74.15910339355469 190.3000118136406,70.35910034179688 185.1000148653984,74.15910339355469 187.1000148653984,68.05909729003906 181.90000265836716,64.25909423828125 188.3000118136406,64.25909423828125 " class="st1"/>
  <polygon fill="#ffffff" id="svg_59" points="190.3000118136406,85.05909729003906 192.3000118136406,91.15910339355469 198.70000571012497,91.15910339355469 193.50000876188278,94.9591064453125 195.50000876188278,100.9591064453125 190.3000118136406,97.25909423828125 185.1000148653984,100.9591064453125 187.1000148653984,94.9591064453125 181.90000265836716,91.15910339355469 188.3000118136406,91.15910339355469 " class="st1"/>
  <polygon fill="#ffffff" id="svg_60" points="190.3000118136406,111.9591064453125 192.3000118136406,117.9591064453125 198.70000571012497,117.9591064453125 193.50000876188278,121.75909423828125 195.50000876188278,127.8591079711914 190.3000118136406,124.05909729003906 185.1000148653984,127.8591079711914 187.1000148653984,121.75909423828125 181.90000265836716,117.9591064453125 188.3000118136406,117.9591064453125 " class="st1"/>
  <polygon fill="#ffffff" id="svg_61" points="209.20000571012497,17.25910186767578 211.20000571012497,23.359100341796875 217.6000148653984,23.359100341796875 212.40000265836716,27.059097290039062 214.40000265836716,33.15910339355469 209.20000571012497,29.359100341796875 204.1000148653984,33.15910339355469 206.00000876188278,27.059097290039062 200.90000265836716,23.359100341796875 207.3000118136406,23.359100341796875 " class="st1"/>
  <polygon fill="#ffffff" id="svg_62" points="209.20000571012497,44.05909729003906 211.20000571012497,50.15910339355469 217.6000148653984,50.15910339355469 212.40000265836716,53.9591064453125 214.40000265836716,59.9591064453125 209.20000571012497,56.25909423828125 204.1000148653984,59.9591064453125 206.00000876188278,53.9591064453125 200.90000265836716,50.15910339355469 207.3000118136406,50.15910339355469 " class="st1"/>
  <polygon fill="#ffffff" id="svg_63" points="209.20000571012497,70.9591064453125 211.20000571012497,77.05909729003906 217.6000148653984,77.05909729003906 212.40000265836716,80.75909423828125 214.40000265836716,86.85910034179688 209.20000571012497,83.05909729003906 204.1000148653984,86.85910034179688 206.00000876188278,80.75909423828125 200.90000265836716,77.05909729003906 207.3000118136406,77.05909729003906 " class="st1"/>
  <polygon fill="#ffffff" id="svg_64" points="209.20000571012497,97.75909423828125 211.20000571012497,103.85910034179688 217.6000148653984,103.85910034179688 212.40000265836716,107.65910339355469 214.40000265836716,113.65910339355469 209.20000571012497,109.9591064453125 204.1000148653984,113.65910339355469 206.00000876188278,107.65910339355469 200.90000265836716,103.85910034179688 207.3000118136406,103.85910034179688 " class="st1"/>
  <polygon fill="#ffffff" id="svg_65" points="209.20000571012497,124.65910339355469 211.20000571012497,130.6591033935547 217.6000148653984,130.6591033935547 212.40000265836716,134.4591064453125 214.40000265836716,140.55909729003906 209.20000571012497,136.75909423828125 204.1000148653984,140.55909729003906 206.00000876188278,134.4591064453125 200.90000265836716,130.6591033935547 207.3000118136406,130.6591033935547 " class="st1"/>
 </g>
</svg>